<svg width="173" height="144" viewBox="0 0 173 144" fill="none" xmlns="http://www.w3.org/2000/svg">
<path d="M171.066 48.1805L130.929 2.42106C130.393 1.80979 129.732 1.31941 128.99 0.982885C128.249 0.646173 127.444 0.471145 126.629 0.469238H46.357C45.5422 0.471145 44.7374 0.646173 43.9958 0.982885C43.2544 1.31941 42.5933 1.80979 42.0567 2.42106L1.92053 48.1805C0.984189 49.2469 0.478206 50.6222 0.50072 52.0397C0.523235 53.4573 1.07262 54.816 2.04237 55.8523L82.3145 141.651C82.851 142.225 83.5002 142.682 84.2215 142.995C84.9429 143.308 85.7209 143.469 86.5074 143.469C87.2939 143.469 88.0719 143.308 88.7932 142.995C89.5145 142.682 90.1636 142.225 90.7001 141.651L170.972 55.8523C171.938 54.8124 172.482 53.4518 172.5 52.0342C172.517 50.6168 172.006 49.2433 171.066 48.1805ZM154.129 46.2285H123.762L97.9605 11.9091H124.027L154.129 46.2285ZM48.2061 57.6683L69.8006 111.528L19.4155 57.6683H48.2061ZM112.424 57.6683C112.424 57.6683 90.3155 122.346 86.4931 122.346C82.6706 122.346 60.5623 57.6683 60.5623 57.6683H112.424ZM63.5581 46.2285C63.5581 46.2285 82.6706 15.72 86.4931 15.72C90.3155 15.72 109.428 46.2285 109.428 46.2285H63.5581ZM124.78 57.6683H153.57L103.185 111.528L124.78 57.6683ZM48.9585 11.9091H75.0256L49.2238 46.2285H18.8565L48.9585 11.9091Z" fill="#F0D687"/>
<path d="M171.066 48.1805L130.929 2.42106C130.393 1.80979 129.732 1.31941 128.99 0.982885C128.249 0.646173 127.444 0.471145 126.629 0.469238H46.357C45.5422 0.471145 44.7374 0.646173 43.9958 0.982885C43.2544 1.31941 42.5933 1.80979 42.0567 2.42106L1.92053 48.1805C0.984189 49.2469 0.478206 50.6222 0.50072 52.0397C0.523235 53.4573 1.07262 54.816 2.04237 55.8523L82.3145 141.651C82.851 142.225 83.5002 142.682 84.2215 142.995C84.9429 143.308 85.7209 143.469 86.5074 143.469C87.2939 143.469 88.0719 143.308 88.7932 142.995C89.5145 142.682 90.1636 142.225 90.7001 141.651L170.972 55.8523C171.938 54.8124 172.482 53.4518 172.5 52.0342C172.517 50.6168 172.006 49.2433 171.066 48.1805ZM154.129 46.2285H123.762L97.9605 11.9091H124.027L154.129 46.2285ZM48.2061 57.6683L69.8006 111.528L19.4155 57.6683H48.2061ZM112.424 57.6683C112.424 57.6683 90.3155 122.346 86.4931 122.346C82.6706 122.346 60.5623 57.6683 60.5623 57.6683H112.424ZM63.5581 46.2285C63.5581 46.2285 82.6706 15.72 86.4931 15.72C90.3155 15.72 109.428 46.2285 109.428 46.2285H63.5581ZM124.78 57.6683H153.57L103.185 111.528L124.78 57.6683ZM48.9585 11.9091H75.0256L49.2238 46.2285H18.8565L48.9585 11.9091Z" fill="url(#paint0_linear_3004_92)" fill-opacity="0.5"/>
<defs>
<linearGradient id="paint0_linear_3004_92" x1="0.5" y1="71.9692" x2="172.5" y2="71.9692" gradientUnits="userSpaceOnUse">
<stop stop-color="#20222D"/>
<stop offset="0.5" stop-color="#20222D" stop-opacity="0"/>
<stop offset="1" stop-color="#20222D"/>
</linearGradient>
</defs>
</svg>
