<svg width="89" height="88" viewBox="0 0 89 88" fill="none" xmlns="http://www.w3.org/2000/svg">
<g clip-path="url(#clip0_3132_7326)">
<path d="M45.2872 57.4455C53.1756 57.4455 59.5705 51.0506 59.5705 43.1622C59.5705 35.2738 53.1756 28.8789 45.2872 28.8789C37.3988 28.8789 31.0039 35.2738 31.0039 43.1622C31.0039 51.0506 37.3988 57.4455 45.2872 57.4455Z" fill="#FFD5D5"/>
<path d="M37.0874 59.5573L36.4421 53.0345L49.328 50.625L56.937 69.1513L43.704 84.3694L34.2754 65.843L37.0874 59.5573Z" fill="#FFD5D5"/>
<path d="M36.2353 56.2996L39.0525 56.9361C39.0525 56.9361 36.8379 49.9136 37.5896 49.2431C38.3412 48.5727 40.1833 49.6291 40.1833 49.6291L42.1189 51.7993L44.4767 49.3988C44.4767 49.3988 47.0365 46.2159 48.0387 45.3219C49.041 44.428 47.4311 41.1099 47.4311 41.1099C47.4311 41.1099 62.3005 37.1004 56.7676 29.8883C56.7676 29.8883 53.5237 24.2337 52.4673 26.0757C51.4109 27.9177 50.1512 24.9923 50.1512 24.9923L46.3047 25.7237C46.3047 25.7237 38.7132 21.2475 31.5079 30.8233C24.3027 40.3991 36.2353 56.2996 36.2353 56.2996Z" fill="#453600"/>
<path d="M72.1506 78.2324C64.3447 84.5612 54.6879 88.0001 44.5001 88.0001C35.1972 88.0001 26.336 85.1318 18.9238 79.8154C18.9371 79.6765 18.9503 79.5392 18.9619 79.4019C19.1587 77.2515 19.3341 75.1607 19.4498 73.4272C19.8981 66.6965 35.6008 62.2105 35.6008 62.2105C35.6008 62.2105 35.6719 62.2816 35.8142 62.4057C36.681 63.1666 40.1993 65.9257 46.3692 66.6965C51.8709 67.3846 53.6822 64.121 54.2297 62.5578C54.3951 62.0815 54.4447 61.7622 54.4447 61.7622L70.5957 69.3894C71.6494 70.8947 72.0613 74.1368 72.1423 77.7809C72.1456 77.9314 72.1489 78.0803 72.1506 78.2324Z" fill="#F0D687"/>
<path d="M75.6126 12.8874C67.3023 4.57699 56.2526 0 44.5 0C32.7474 0 21.6977 4.57699 13.3874 12.8874C5.077 21.1977 0.5 32.2474 0.5 44C0.5 54.7271 4.31279 64.8686 11.2999 72.8762C11.9665 73.6421 12.6629 74.3881 13.3874 75.1126C13.5577 75.283 13.7298 75.4534 13.9035 75.6188C14.3666 76.0671 14.8381 76.5054 15.3177 76.9305C15.6089 77.1902 15.9033 77.445 16.2011 77.6947C16.4343 77.8916 16.6675 78.0851 16.9041 78.2753C16.909 78.2803 16.9123 78.2836 16.9173 78.2869C17.574 78.8162 18.2423 79.3257 18.9238 79.8153C26.3359 85.1317 35.1971 88 44.5 88C54.6878 88 64.3447 84.5611 72.1505 78.2323C72.7874 77.7162 73.411 77.1803 74.023 76.6262C74.5639 76.1365 75.0932 75.632 75.6126 75.1126C75.7764 74.9489 75.9401 74.7835 76.1006 74.6164C76.5472 74.1565 76.9806 73.6884 77.4041 73.2137C84.578 65.1547 88.5 54.8792 88.5 44C88.5 32.2474 83.923 21.1977 75.6126 12.8874ZM77.2965 72.8018C76.883 73.2716 76.4595 73.7347 76.0262 74.1863C75.3513 74.8893 74.6549 75.5708 73.9353 76.2275C73.6624 76.479 73.3862 76.7238 73.1066 76.9669C72.789 77.2432 72.4681 77.5144 72.1423 77.7808C69.5734 79.8898 66.7597 81.7093 63.7508 83.1914C62.5615 83.7786 61.3424 84.3129 60.0952 84.791C55.2502 86.6502 49.9917 87.6692 44.5 87.6692C39.2002 87.6692 34.1187 86.7197 29.4159 84.9829C27.4856 84.2716 25.6197 83.4263 23.8283 82.4586C23.5653 82.3164 23.3039 82.1725 23.0442 82.0253C21.6779 81.2511 20.3562 80.4059 19.0875 79.4928C19.0462 79.463 19.0032 79.4316 18.9618 79.4018C18.0587 78.7501 17.1803 78.0636 16.3317 77.3424C16.0208 77.0794 15.7131 76.8131 15.4104 76.5402C14.9174 76.1018 14.4344 75.6502 13.963 75.1871C13.0698 74.312 12.2162 73.4006 11.4008 72.4528C4.81564 64.8041 0.830827 54.8594 0.830827 44C0.830827 19.9207 20.4208 0.330827 44.5 0.330827C68.5792 0.330827 88.1692 19.9207 88.1692 44C88.1692 55.0265 84.062 65.1101 77.2965 72.8018Z" fill="#F0D687"/>
</g>
<defs>
<clipPath id="clip0_3132_7326">
<rect width="88" height="88" fill="white" transform="translate(0.5)"/>
</clipPath>
</defs>
</svg>
