<svg width="88" height="88" viewBox="0 0 88 88" fill="none" xmlns="http://www.w3.org/2000/svg">
<g clip-path="url(#clip0_3978_3003)">
<path d="M44.7872 57.4455C52.6756 57.4455 59.0705 51.0506 59.0705 43.1622C59.0705 35.2738 52.6756 28.8789 44.7872 28.8789C36.8988 28.8789 30.5039 35.2738 30.5039 43.1622C30.5039 51.0506 36.8988 57.4455 44.7872 57.4455Z" fill="#FFD5D5"/>
<path d="M36.5894 59.5573L35.9441 53.0345L48.83 50.625L56.439 69.1513L43.2059 84.3694L33.7773 65.843L36.5894 59.5573Z" fill="#FFD5D5"/>
<path d="M35.7353 56.2996L38.5525 56.9361C38.5525 56.9361 36.3379 49.9136 37.0896 49.2431C37.8412 48.5727 39.6833 49.6291 39.6833 49.6291L41.6189 51.7993L43.9767 49.3988C43.9767 49.3988 46.5365 46.2159 47.5387 45.3219C48.541 44.428 46.9311 41.1099 46.9311 41.1099C46.9311 41.1099 61.8005 37.1004 56.2676 29.8883C56.2676 29.8883 53.0237 24.2337 51.9673 26.0757C50.9109 27.9177 49.6512 24.9923 49.6512 24.9923L45.8047 25.7237C45.8047 25.7237 38.2132 21.2475 31.0079 30.8233C23.8027 40.3991 35.7353 56.2996 35.7353 56.2996Z" fill="#453600"/>
<path d="M71.6486 78.2324C63.8428 84.5612 54.1859 88.0001 43.9981 88.0001C34.6953 88.0001 25.8341 85.1318 18.4219 79.8154C18.4351 79.6765 18.4483 79.5392 18.4599 79.4019C18.6568 77.2515 18.8321 75.1607 18.9479 73.4272C19.3962 66.6965 35.0989 62.2105 35.0989 62.2105C35.0989 62.2105 35.17 62.2816 35.3123 62.4057C36.179 63.1666 39.6974 65.9257 45.8673 66.6965C51.3689 67.3846 53.1802 64.121 53.7277 62.5578C53.8932 62.0815 53.9428 61.7622 53.9428 61.7622L70.0938 69.3894C71.1474 70.8947 71.5593 74.1368 71.6404 77.7809C71.6437 77.9314 71.647 78.0803 71.6486 78.2324Z" fill="#F0D687"/>
<path d="M75.1126 12.8874C66.8023 4.57699 55.7526 0 44 0C32.2474 0 21.1977 4.57699 12.8874 12.8874C4.577 21.1977 0 32.2474 0 44C0 54.7271 3.81279 64.8686 10.7999 72.8762C11.4665 73.6421 12.1629 74.3881 12.8874 75.1126C13.0577 75.283 13.2298 75.4534 13.4035 75.6188C13.8666 76.0671 14.3381 76.5054 14.8177 76.9305C15.1089 77.1902 15.4033 77.445 15.7011 77.6947C15.9343 77.8916 16.1675 78.0851 16.4041 78.2753C16.409 78.2803 16.4123 78.2836 16.4173 78.2869C17.074 78.8162 17.7423 79.3257 18.4238 79.8153C25.8359 85.1317 34.6971 88 44 88C54.1878 88 63.8447 84.5611 71.6505 78.2323C72.2874 77.7162 72.911 77.1803 73.523 76.6262C74.0639 76.1365 74.5932 75.632 75.1126 75.1126C75.2764 74.9489 75.4401 74.7835 75.6006 74.6164C76.0472 74.1565 76.4806 73.6884 76.9041 73.2137C84.078 65.1547 88 54.8792 88 44C88 32.2474 83.423 21.1977 75.1126 12.8874ZM76.7965 72.8018C76.383 73.2716 75.9595 73.7347 75.5262 74.1863C74.8513 74.8893 74.1549 75.5708 73.4353 76.2275C73.1624 76.479 72.8862 76.7238 72.6066 76.9669C72.289 77.2432 71.9681 77.5144 71.6423 77.7808C69.0734 79.8898 66.2597 81.7093 63.2508 83.1914C62.0615 83.7786 60.8424 84.3129 59.5952 84.791C54.7502 86.6502 49.4917 87.6692 44 87.6692C38.7002 87.6692 33.6187 86.7197 28.9159 84.9829C26.9856 84.2716 25.1197 83.4263 23.3283 82.4586C23.0653 82.3164 22.8039 82.1725 22.5442 82.0253C21.1779 81.2511 19.8562 80.4059 18.5875 79.4928C18.5462 79.463 18.5032 79.4316 18.4618 79.4018C17.5587 78.7501 16.6803 78.0636 15.8317 77.3424C15.5208 77.0794 15.2131 76.8131 14.9104 76.5402C14.4174 76.1018 13.9344 75.6502 13.463 75.1871C12.5698 74.312 11.7162 73.4006 10.9008 72.4528C4.31564 64.8041 0.330827 54.8594 0.330827 44C0.330827 19.9207 19.9208 0.330827 44 0.330827C68.0792 0.330827 87.6692 19.9207 87.6692 44C87.6692 55.0265 83.562 65.1101 76.7965 72.8018Z" fill="#F0D687"/>
</g>
<defs>
<clipPath id="clip0_3978_3003">
<rect width="88" height="88" fill="white"/>
</clipPath>
</defs>
</svg>
