<svg width="129" height="88" viewBox="0 0 129 88" fill="none" xmlns="http://www.w3.org/2000/svg">
<path d="M126.697 2.8865e-09H2.30066C1.82684 0.000432063 1.37256 0.189137 1.03753 0.524683C0.702493 0.860228 0.514088 1.31519 0.513672 1.78972V86.2103C0.514088 86.6848 0.702493 87.1398 1.03753 87.4753C1.37256 87.8109 1.82684 87.9996 2.30066 88H126.697C126.955 88 127.211 87.9439 127.445 87.8354C127.68 87.727 127.888 87.5689 128.056 87.372C128.07 87.3565 128.083 87.3401 128.095 87.3227C128.201 87.1921 128.288 87.0461 128.351 86.8896C128.441 86.6745 128.487 86.4435 128.486 86.2103V1.78973C128.486 1.31487 128.297 0.859636 127.961 0.52405C127.626 0.188464 127.171 -2.69329e-05 126.697 2.8865e-09ZM127.976 86.2103C127.976 86.46 127.903 86.7042 127.765 86.9122C127.642 87.0953 127.476 87.2449 127.281 87.3473C127.101 87.4408 126.9 87.4893 126.697 87.4889H2.30066C1.96217 87.4885 1.63766 87.3537 1.39831 87.114C1.15896 86.8743 1.02432 86.5493 1.0239 86.2103V1.78973C1.02431 1.45073 1.15896 1.12573 1.39831 0.886025C1.63766 0.646316 1.96217 0.511465 2.30066 0.511053H126.697C127.036 0.51101 127.361 0.645651 127.601 0.885399C127.84 1.12515 127.975 1.4504 127.976 1.78973V86.2103Z" fill="#F0D687"/>
<path d="M128.23 7.17285H0.768555V7.68448H128.23V7.17285Z" fill="#F0D687"/>
<path d="M5.11073 5.37204C5.95716 5.37204 6.64333 4.68484 6.64333 3.83714C6.64333 2.98944 5.95716 2.30225 5.11073 2.30225C4.26429 2.30225 3.57812 2.98944 3.57812 3.83714C3.57812 4.68484 4.26429 5.37204 5.11073 5.37204Z" fill="#F0D687"/>
<path d="M9.51698 5.37204C10.3634 5.37204 11.0496 4.68484 11.0496 3.83714C11.0496 2.98944 10.3634 2.30225 9.51698 2.30225C8.67054 2.30225 7.98438 2.98944 7.98438 3.83714C7.98438 4.68484 8.67054 5.37204 9.51698 5.37204Z" fill="#F0D687"/>
<path d="M13.9232 5.37204C14.7697 5.37204 15.4558 4.68484 15.4558 3.83714C15.4558 2.98944 14.7697 2.30225 13.9232 2.30225C13.0768 2.30225 12.3906 2.98944 12.3906 3.83714C12.3906 4.68484 13.0768 5.37204 13.9232 5.37204Z" fill="#F0D687"/>
<path d="M57.276 50.6681C55.7432 49.6688 54.9808 47.3465 55.3564 45.2227C55.732 43.0989 57.1464 41.2696 58.8419 40.4807C59.6667 40.1084 60.5709 39.9471 61.4733 40.0113C62.3757 40.0756 63.2481 40.3633 64.012 40.8487C65.5668 41.8009 67.7658 42.3224 68.5042 44.2275C69.0716 45.6915 68.3519 48.6644 67.5883 50.0863C66.9282 51.3154 65.6739 51.8776 64.4955 52.1218C63.1918 52.3881 61.8462 52.3709 60.5497 52.0713C59.2532 51.7717 58.0361 51.1967 56.9807 50.3853L57.276 50.6681Z" fill="#A98504"/>
<path d="M56.4764 61.9486L55.2508 64.0646L55.0889 64.3438L54.8533 64.7543H51.2402L51.4841 64.3438L52.1153 63.2786L53.5868 60.791L55.2529 61.4581L56.4764 61.9486Z" fill="#FFB8B8"/>
<path d="M50.9704 64.7543L50.3105 64.3438L50.2285 64.2925L54.3703 56.7334C54.5484 56.4062 54.7895 56.1177 55.0798 55.8844C55.37 55.6512 55.7035 55.478 56.061 55.3747C56.5124 55.2401 56.9904 55.2224 57.4505 55.3234C57.7189 55.3801 57.9773 55.477 58.2169 55.6107C58.3156 55.6649 58.4107 55.7252 58.5018 55.7913C58.852 56.0373 59.1398 56.362 59.342 56.7395C59.5827 57.1815 59.7016 57.6796 59.6865 58.1828C59.6714 58.686 59.5228 59.1761 59.256 59.6027L57.6595 62.158L56.2946 64.3438L56.0385 64.7543H50.9704Z" fill="black"/>
<path d="M61.6116 53.351C64.3915 53.351 66.645 51.0941 66.645 48.31C66.645 45.526 64.3915 43.269 61.6116 43.269C58.8317 43.269 56.5781 45.526 56.5781 48.31C56.5781 51.0941 58.8317 53.351 61.6116 53.351Z" fill="#FFC6C6"/>
<path d="M66.6645 64.7542H55.35L55.4012 64.6085C55.3725 64.5203 55.3459 64.432 55.3213 64.3437C55.2947 64.2514 55.2721 64.157 55.2516 64.0646C55.0678 63.2054 55.0685 62.3169 55.2537 61.458C55.8788 58.3835 58.3728 55.8857 58.3728 55.8857C58.4159 55.8528 58.4589 55.8221 58.5019 55.7913C58.8729 55.5192 59.2755 55.2932 59.7008 55.1181C61.5534 54.3484 63.4962 54.6583 64.8016 55.0565C65.2562 55.1942 65.7007 55.3636 66.1317 55.5635C66.2833 55.6353 66.3653 55.6804 66.3653 55.6804L66.4944 59.6232L66.6501 64.3437L66.6645 64.7542Z" fill="#F0D687"/>
<path d="M71.8988 64.3434L71.0339 59.9389L70.1609 55.4974C70.1245 55.314 70.0336 55.1459 69.9001 55.0151C69.7666 54.8844 69.5967 54.7971 69.4128 54.7647L67.5848 54.4486L65.8839 54.1551C65.7198 54.1255 65.5508 54.1414 65.3951 54.2011C65.2394 54.2608 65.103 54.362 65.0006 54.4938C64.8728 54.6534 64.8027 54.8516 64.8018 55.0562C64.8018 55.1825 64.8276 55.3075 64.8776 55.4235C65.765 57.4965 65.7814 60.7783 65.556 64.3434C65.5458 64.4789 65.5375 64.6164 65.5272 64.7539H71.9807L71.8988 64.3434Z" fill="black"/>
<path d="M59.7003 55.1178C59.6626 54.9684 59.5885 54.8308 59.4846 54.7172C59.3806 54.6037 59.2501 54.5178 59.1048 54.4673C58.9595 54.4168 58.8039 54.4033 58.6521 54.428C58.5002 54.4527 58.3569 54.5148 58.235 54.6088L57.4501 55.323L54.2366 58.2539C54.1365 58.3439 54.058 58.4555 54.0071 58.5802C53.6443 59.4484 52.9374 61.1622 52.1155 63.2782C51.9823 63.6231 51.845 63.9781 51.7037 64.3435C51.6544 64.4789 51.6012 64.6164 51.5479 64.7539H56.8435C56.8865 64.6164 56.9295 64.4789 56.9726 64.3435C57.2082 63.5984 57.4378 62.8678 57.6591 62.1576C58.3066 60.0949 58.8907 58.2211 59.3416 56.7392C59.4666 56.3287 59.5807 55.9497 59.6839 55.6022C59.732 55.445 59.7377 55.2778 59.7003 55.1178Z" fill="black"/>
<path d="M73.0866 64.7543H73.4288L73.3817 64.6394L73.2567 64.3438L71.3282 59.7607L71.0331 59.9393L68.6641 61.3739L69.8793 64.3438L70.0474 64.7543H71.9799H73.0866Z" fill="#FFB8B8"/>
<path d="M71.132 56.1256C70.8711 55.4416 70.3562 54.8852 69.695 54.5726C69.0339 54.2601 68.2776 54.2157 67.5845 54.4488C67.496 54.4782 67.4091 54.5125 67.3243 54.5514C66.8388 54.7683 66.425 55.1193 66.1316 55.5633C66.0118 55.7405 65.9134 55.9314 65.8385 56.1318C65.7055 56.4797 65.6426 56.8505 65.6536 57.2229C65.6645 57.5952 65.7489 57.9617 65.902 58.3012L66.4943 59.623L68.6133 64.3436L68.7978 64.754H73.0871L73.3822 64.6391L74.1487 64.3436L74.2553 64.3025L71.132 56.1256Z" fill="black"/>
<path d="M65.5644 42.5207C65.7398 42.5734 65.9277 42.5666 66.099 42.5016C66.2702 42.4365 66.4153 42.3167 66.5116 42.1607C66.6029 42.0017 66.6566 41.8239 66.6686 41.6409C66.6806 41.4579 66.6507 41.2746 66.581 41.1051C66.4381 40.7665 66.213 40.4692 65.9261 40.2401C65.6003 39.9448 65.2037 39.7391 64.7749 39.6431C64.5607 39.597 64.3391 39.5975 64.125 39.6446C63.911 39.6917 63.7096 39.7844 63.5345 39.9162C63.3625 40.0525 63.235 40.237 63.1684 40.4463C63.1017 40.6555 63.0989 40.8799 63.1603 41.0907C63.2906 41.4693 63.6436 41.7229 63.9962 41.9117C64.6956 42.2857 65.467 42.5053 66.2583 42.5558L65.5644 42.5207Z" fill="#A98504"/>
<path d="M66.5441 48.1596C65.7349 48.2714 65.8388 47.8588 65.5147 47.1079C65.1906 46.3569 64.7567 45.4655 63.9434 45.3894C63.2768 45.3271 62.7277 45.8607 62.1877 46.257C61.2252 46.9633 59.9282 47.309 58.8125 46.8853C57.6969 46.4616 56.9216 45.1299 57.3449 44.0127C57.4767 43.7042 57.6703 43.4261 57.9138 43.1956C58.1572 42.9651 58.4454 42.7871 58.7603 42.6726C59.3921 42.4477 60.0632 42.3543 60.7323 42.3983C62.2205 42.4459 63.6801 42.8201 65.0081 43.4944C65.9246 43.9608 66.8168 44.6281 67.1645 45.597C67.5122 46.5659 67.741 47.9275 66.7468 48.1896L66.5441 48.1596Z" fill="#A98504"/>
<path d="M65.1507 39.8555C64.7507 39.1582 65.0809 38.2015 65.7354 37.7355C66.3898 37.2696 67.2678 37.2239 68.0487 37.4108C68.8211 37.6057 69.5287 38.0005 70.1007 38.5556C70.6726 39.1108 71.0887 39.8068 71.3073 40.5739C71.6387 41.7933 71.4417 43.103 71.7223 44.3351C71.8719 44.9919 72.1542 45.611 72.5518 46.1544C72.9493 46.6979 73.4537 47.154 74.034 47.4948C74.6142 47.8357 75.2579 48.0539 75.9256 48.1361C76.5932 48.2184 77.2706 48.1629 77.916 47.9731C78.7566 47.7258 79.6109 47.1248 79.6936 46.2512C79.7806 47.2544 79.5522 48.2596 79.0404 49.1263C78.5286 49.993 77.759 50.6777 76.8393 51.0845C75.7562 51.537 74.548 51.5665 73.3749 51.5363C72.6103 51.5167 71.8283 51.4706 71.1231 51.1744C70.6351 50.9515 70.1964 50.6333 69.8327 50.2384C69.4691 49.8436 69.1878 49.38 69.0054 48.8748C68.6463 47.8595 68.5493 46.7698 68.7235 45.7069C68.8389 44.8801 69.0685 44.0697 69.1327 43.2374C69.197 42.4051 69.0751 41.5163 68.5628 40.8578C68.0504 40.1993 67.0717 39.863 66.3432 40.2688C66.0505 40.4319 65.8143 40.6983 65.4962 40.8035C65.1781 40.9088 64.7273 40.7238 64.7562 40.3896L65.1507 39.8555Z" fill="#A98504"/>
<path d="M99.499 64.754L99.538 64.3435L100.694 52.2999C101.073 52.0028 101.48 51.7436 101.909 51.5261C104.288 50.3254 106.584 50.9001 107.826 51.3968C108.155 51.5258 108.473 51.6817 108.777 51.8627L109.453 64.3435L109.475 64.754H99.499Z" fill="#F0D687"/>
<path d="M104.912 49.0947C107.692 49.0947 109.946 46.8377 109.946 44.0537C109.946 41.2696 107.692 39.0127 104.912 39.0127C102.132 39.0127 99.8789 41.2696 99.8789 44.0537C99.8789 46.8377 102.132 49.0947 104.912 49.0947Z" fill="#FFD4D4"/>
<path d="M108.996 47.1273C109.37 46.7324 109.618 46.235 109.709 45.6983C109.801 45.1616 109.73 44.6099 109.507 44.1134C109.284 43.6169 108.919 43.198 108.458 42.91C107.996 42.6221 107.46 42.478 106.917 42.4962C106.221 42.5195 105.565 42.8047 104.901 43.0141C103.894 43.3571 102.82 43.4539 101.768 43.2966C100.71 43.1321 99.7555 42.5675 99.1007 41.7192C98.4779 40.862 98.2837 39.673 98.7237 38.7088C99.2316 37.5957 100.418 36.9824 101.534 36.484C101.984 36.2583 102.465 36.1001 102.961 36.0145C103.209 35.9732 103.464 35.9837 103.708 36.0453C103.952 36.107 104.181 36.2185 104.38 36.3729C104.694 36.643 104.878 37.0491 105.219 37.2832C105.603 37.5468 106.102 37.5399 106.566 37.5863C107.609 37.6909 108.597 38.1113 109.396 38.7915C110.195 39.4717 110.769 40.3796 111.04 41.3942C111.312 42.4089 111.269 43.4823 110.916 44.4717C110.564 45.4611 109.919 46.3197 109.068 46.9331L108.996 47.1273Z" fill="#453600"/>
<path d="M102.66 53.6114L101.91 51.5261L101.863 51.3962C101.841 51.3345 101.805 51.2788 101.758 51.2331C101.711 51.1874 101.654 51.153 101.592 51.1325C101.53 51.112 101.464 51.106 101.399 51.1148C101.334 51.1236 101.272 51.147 101.218 51.1834L100.366 51.7519C100.366 51.7519 94.9048 51.7519 94.4662 55.0337C94.4601 55.0851 94.4519 55.1425 94.4458 55.2041C94.4455 55.2069 94.4448 55.2097 94.4437 55.2123C94.3884 55.4278 93.3576 59.4177 92.4722 64.3436C92.4477 64.479 92.4231 64.6165 92.3984 64.7541H104.266C104.652 59.8059 104.436 55.2051 102.66 53.6114Z" fill="black"/>
<path d="M116.817 64.3438C116.169 59.2907 115.243 55.2043 115.243 55.2043C115.234 55.1427 115.226 55.0852 115.22 55.0339C114.784 51.7521 109.322 51.7521 109.322 51.7521L108.471 51.1839C108.417 51.1475 108.355 51.124 108.29 51.1152C108.225 51.1064 108.159 51.1125 108.097 51.1331C108.034 51.1536 107.978 51.1881 107.931 51.2338C107.884 51.2795 107.848 51.3353 107.826 51.397L107.029 53.6116C105.252 55.2053 105.036 59.8059 105.422 64.7541L116.868 64.7542C116.851 64.6167 116.833 64.4792 116.817 64.3438Z" fill="black"/>
<path d="M20.6845 52.8376L19.4672 64.3435L19.4241 64.754H16.1309C16.1698 64.6206 16.2087 64.4831 16.2497 64.3435C17.1843 61.1335 18.4569 56.4478 18.3195 55.2061C18.1044 53.2686 19.6107 52.6221 19.6107 52.6221L19.7049 52.6405L20.6845 52.8376Z" fill="#F0D687"/>
<path d="M25.9963 49.2865C28.7762 49.2865 31.0298 47.0296 31.0298 44.2456C31.0298 41.4615 28.7762 39.2046 25.9963 39.2046C23.2164 39.2046 20.9629 41.4615 20.9629 44.2456C20.9629 47.0296 23.2164 49.2865 25.9963 49.2865Z" fill="#A0616A"/>
<path d="M32.5114 62.3119C32.2576 62.7805 32.0496 63.2727 31.8905 63.7814C31.831 63.962 31.7737 64.1509 31.7204 64.3438C31.6814 64.4772 31.6466 64.6147 31.6118 64.7543H18.3359C18.3544 64.6188 18.3708 64.4813 18.3893 64.3438C19.0676 58.9767 19.6168 53.5295 19.7049 52.6408C19.7131 52.5567 19.7173 52.5136 19.7173 52.5136C27.6728 48.3143 33.4787 53.8066 33.4787 53.8066C33.4787 53.8066 33.4869 53.8456 33.4992 53.9215C33.6263 54.6892 34.2738 59.1717 32.5114 62.3119Z" fill="#F0D687"/>
<path d="M31.8911 63.781L31.0059 61.8804L31.221 54.3439L33.4999 53.9211L33.5799 53.9067C34.7578 54.5925 35.6693 55.6573 36.1661 56.9279C36.6088 58.0362 37.451 61.3694 38.1622 64.3433C38.195 64.4809 38.2278 64.6184 38.2606 64.7538H32.344L32.1534 64.3433L31.8911 63.781Z" fill="#F0D687"/>
<path d="M39.9881 30.8892H10.8831C10.2588 30.8899 9.6603 31.1386 9.21886 31.5807C8.77742 32.0228 8.52908 32.6222 8.52832 33.2474V62.396C8.52908 63.0212 8.77742 63.6206 9.21886 64.0627C9.6603 64.5048 10.2588 64.7535 10.8831 64.7543H39.9881C40.6125 64.7538 41.2112 64.5053 41.6527 64.0631C42.0942 63.6209 42.3424 63.0213 42.3428 62.396V33.2474C42.3424 32.6221 42.0942 32.0225 41.6527 31.5803C41.2112 31.1382 40.6125 30.8896 39.9881 30.8892ZM41.9329 62.396C41.9325 62.9125 41.7275 63.4076 41.3629 63.7728C40.9982 64.138 40.5038 64.3433 39.9881 64.3438H10.8831C10.3675 64.343 9.87328 64.1375 9.50872 63.7724C9.14415 63.4073 8.93898 62.9124 8.93819 62.396V33.2474C8.93898 32.7311 9.14415 32.2361 9.50872 31.871C9.87328 31.5059 10.3675 31.3004 10.8831 31.2996H39.9881C40.5038 31.3001 40.9982 31.5054 41.3629 31.8706C41.7275 32.2358 41.9325 32.731 41.9329 33.2474V62.396ZM19.4678 64.3438L19.4248 64.7543H31.6124C31.6472 64.6147 31.682 64.4772 31.7209 64.3438H19.4678Z" fill="#F0D687"/>
<path d="M79.0506 30.8892H49.9456C49.3213 30.8899 48.7228 31.1386 48.2814 31.5807C47.8399 32.0228 47.5916 32.6222 47.5908 33.2474V62.396C47.5916 63.0212 47.8399 63.6206 48.2814 64.0627C48.7228 64.5048 49.3213 64.7535 49.9456 64.7543H79.0506C79.675 64.7538 80.2737 64.5053 80.7152 64.0631C81.1567 63.6209 81.4049 63.0213 81.4053 62.396V33.2474C81.4049 32.6221 81.1567 32.0225 80.7152 31.5803C80.2737 31.1382 79.675 30.8896 79.0506 30.8892ZM80.9954 62.396C80.995 62.9125 80.79 63.4076 80.4253 63.7728C80.0607 64.138 79.5663 64.3433 79.0506 64.3438H49.9456C49.43 64.343 48.9358 64.1375 48.5712 63.7724C48.2066 63.4073 48.0015 62.9124 48.0007 62.396V33.2474C48.0015 32.7311 48.2066 32.2361 48.5712 31.871C48.9358 31.5059 49.43 31.3004 49.9456 31.2996H79.0506C79.5663 31.3001 80.0607 31.5054 80.4253 31.8706C80.79 32.2358 80.995 32.731 80.9954 33.2474V62.396ZM55.321 64.3438C55.3457 64.432 55.3723 64.5203 55.401 64.6085L55.3498 64.7543H65.5268C65.5371 64.6167 65.5453 64.4792 65.5556 64.3438H55.321Z" fill="#F0D687"/>
<path d="M118.116 30.8892H89.011C88.3866 30.8895 87.7879 31.1381 87.3464 31.5803C86.9049 32.0225 86.6567 32.6221 86.6562 33.2474V62.396C86.6567 63.0213 86.9049 63.6209 87.3464 64.0631C87.7879 64.5053 88.3866 64.7539 89.011 64.7543H118.116C118.74 64.7535 119.339 64.5048 119.78 64.0627C120.222 63.6206 120.47 63.0212 120.471 62.396V33.2474C120.47 32.6222 120.222 32.0228 119.78 31.5807C119.339 31.1386 118.74 30.8899 118.116 30.8892ZM120.061 62.396C120.06 62.9123 119.855 63.4073 119.49 63.7724C119.126 64.1375 118.632 64.343 118.116 64.3438H89.011C88.4953 64.3433 88.0009 64.138 87.6363 63.7728C87.2716 63.4076 87.0666 62.9125 87.0661 62.396V33.2474C87.0666 32.731 87.2716 32.2358 87.6363 31.8706C88.0009 31.5054 88.4953 31.3001 89.011 31.2996H118.116C118.632 31.3004 119.126 31.5059 119.49 31.871C119.855 32.2361 120.06 32.7311 120.061 33.2474V62.396ZM104.297 64.3438C104.287 64.4792 104.277 64.6167 104.266 64.7543H113.097C113.114 64.6188 113.132 64.4813 113.148 64.3438H104.297Z" fill="#F0D687"/>
<path d="M98.3134 76.6584H30.6844C30.2496 76.6584 29.8326 76.4854 29.5251 76.1775C29.2177 75.8696 29.0449 75.4519 29.0449 75.0165C29.0449 74.581 29.2177 74.1633 29.5251 73.8554C29.8326 73.5475 30.2496 73.3745 30.6844 73.3745H98.3134C98.7482 73.3745 99.1652 73.5475 99.4727 73.8554C99.7802 74.1633 99.9529 74.581 99.9529 75.0165C99.9529 75.4519 99.7802 75.8696 99.4727 76.1775C99.1652 76.4854 98.7482 76.6584 98.3134 76.6584Z" fill="#CCCCCC"/>
<path d="M79.3572 22.2688H49.6414C49.2066 22.2688 48.7896 22.0958 48.4821 21.7878C48.1747 21.4799 48.002 21.0623 48.002 20.6268C48.002 20.1913 48.1747 19.7737 48.4821 19.4658C48.7896 19.1579 49.2066 18.9849 49.6414 18.9849H79.3572C79.792 18.9849 80.209 19.1579 80.5165 19.4658C80.824 19.7737 80.9967 20.1913 80.9967 20.6268C80.9967 21.0623 80.824 21.4799 80.5165 21.7878C80.209 22.0958 79.792 22.2688 79.3572 22.2688Z" fill="#F0D687"/>
<path d="M28.4039 48.637C28.5744 48.8054 28.7997 48.9065 29.0386 48.9218C29.2775 48.9371 29.5139 48.8656 29.7044 48.7205C30.8907 47.8398 31.9322 46.7436 32.5485 45.4065C33.2547 43.8743 33.3335 41.9942 32.482 40.538C31.7622 39.307 30.4912 38.5127 29.2244 37.8604C28.7325 37.5824 28.2027 37.3779 27.6517 37.2534C27.0949 37.1304 26.5121 37.2245 26.0222 37.5167C25.7825 37.6672 25.5936 37.8866 25.4803 38.1462C25.3669 38.4058 25.3343 38.6936 25.3867 38.9721C24.7783 38.2768 23.9989 37.7528 23.1259 37.4521C22.5762 37.2367 21.9742 37.193 21.3993 37.3268C20.5954 37.5551 20.0085 38.2704 19.6875 39.0431C19.4279 39.6308 19.3383 40.2797 19.4288 40.9159C19.4764 41.2325 19.5899 41.5355 19.7618 41.8054C19.9338 42.0754 20.1604 42.3061 20.427 42.4828C21.0916 42.8947 21.9395 42.865 22.7028 42.6967C23.4661 42.5285 24.205 42.2358 24.983 42.1618C25.7611 42.0878 26.6275 42.2821 27.101 42.9048C27.4345 43.3434 27.5201 43.9163 27.595 44.4624L27.9843 47.3028C28.0161 47.7137 28.1209 48.1156 28.2937 48.4896C28.3237 48.5435 28.3607 48.5931 28.4039 48.637Z" fill="#453600"/>
</svg>
